<?xml version="1.0" standalone="no"?>
<!DOCTYPE svg PUBLIC "-//W3C//DTD SVG 20010904//EN"
 "http://www.w3.org/TR/2001/REC-SVG-20010904/DTD/svg10.dtd">
<svg version="1.0" xmlns="http://www.w3.org/2000/svg"
 width="512.000000pt" height="512.000000pt" viewBox="0 0 512.000000 512.000000"
 preserveAspectRatio="xMidYMid meet">
<metadata>
Created by potrace 1.14, written by Peter Selinger 2001-2017
</metadata>
<g transform="translate(0.000000,512.000000) scale(0.100000,-0.100000)"
fill="#000000" stroke="none">
<path d="M0 2560 l0 -2560 2560 0 2560 0 0 2560 0 2560 -2560 0 -2560 0 0
-2560z m2885 1821 c1033 -193 1696 -1175 1485 -2200 -190 -920 -1068 -1562
-1998 -1460 -977 106 -1699 940 -1659 1914 19 456 193 867 506 1197 292 308
670 502 1095 563 142 20 425 13 571 -14z"/>
<path d="M3155 4110 c-43 -17 -85 -83 -85 -133 0 -12 8 -38 19 -57 l19 -35
-31 -68 c-23 -53 -34 -66 -46 -61 -52 22 -187 56 -276 69 -398 59 -798 -76
-1085 -364 -108 -109 -178 -206 -243 -336 -139 -278 -168 -611 -82 -930 5 -18
-13 -27 -172 -85 -167 -62 -178 -67 -176 -90 1 -14 6 -37 12 -51 l10 -27 183
68 183 68 50 -97 c111 -216 287 -405 478 -515 26 -16 47 -31 47 -35 0 -5 -40
-95 -90 -200 -49 -106 -90 -194 -90 -196 0 -10 92 -37 99 -29 7 8 53 105 152
320 l28 62 61 -25 c34 -13 109 -35 168 -49 716 -163 1430 316 1547 1039 28
170 15 404 -30 555 -9 30 -15 55 -13 56 2 1 23 10 48 19 43 17 46 17 71 -2 40
-30 88 -35 137 -16 102 41 119 161 35 236 -34 29 -40 31 -96 27 -54 -4 -63 -8
-93 -41 -19 -20 -34 -45 -34 -56 0 -24 -16 -37 -68 -55 l-41 -15 -25 55 c-37
80 -123 209 -198 295 -87 100 -219 203 -367 289 -22 12 33 140 61 140 33 0 92
37 111 69 37 64 16 154 -46 191 -33 21 -96 25 -132 10z m86 -106 c17 -21 0
-49 -32 -49 -27 0 -37 28 -19 50 16 19 34 19 51 -1z m-469 -591 c175 -175 318
-322 318 -327 0 -14 -81 -96 -95 -96 -15 0 -710 698 -703 705 3 4 39 13 80 20
40 7 75 14 78 14 2 1 147 -142 322 -316z m-20 305 l76 -11 224 -224 223 -223
-50 -50 -50 -50 -285 285 c-321 321 -310 300 -138 273z m-209 -436 l377 -377
-50 -50 -50 -50 -397 397 -397 397 64 30 c36 16 67 30 70 30 3 1 175 -169 383
-377z m702 236 c39 -27 90 -66 115 -88 l45 -40 -25 -25 -25 -25 -140 142
c-127 127 -135 138 -90 113 28 -15 82 -50 120 -77z m-905 -383 l405 -405 -53
-52 -52 -53 -410 410 c-226 225 -410 413 -410 417 0 7 101 88 110 88 3 0 187
-182 410 -405z m-455 -23 c-63 -1 -167 -1 -230 0 l-116 3 38 62 c21 34 65 94
97 134 l59 71 134 -134 133 -133 -115 -3z m1636 137 l40 -53 -810 -810 c-774
-774 -811 -809 -833 -797 -13 6 -39 25 -58 41 l-35 29 825 825 c453 454 826
824 827 822 2 -2 22 -28 44 -57z m499 -134 c17 -21 3 -57 -22 -53 -30 4 -45
32 -29 52 17 20 35 20 51 1z m-366 -100 l25 -60 -747 -747 c-411 -412 -752
-748 -759 -748 -6 0 -39 12 -73 27 l-62 26 788 788 c434 434 792 785 796 781
4 -4 19 -34 32 -67z m-1469 -85 l69 -70 -408 0 c-322 0 -407 3 -403 13 2 6 13
38 23 70 l18 57 316 0 316 0 69 -70z m1545 -181 l13 -81 -639 -639 -639 -639
-65 10 c-36 6 -73 13 -84 16 -15 5 125 150 685 710 387 387 707 704 710 704 4
0 12 -36 19 -81z m-1295 -69 l69 -70 -552 0 -553 0 7 63 c4 34 9 65 11 70 2 4
217 7 476 7 l473 0 69 -70z m10 -250 l-69 -70 -478 0 -478 0 -4 23 c-3 12 -8
43 -11 70 l-6 47 558 0 557 0 -69 -70z m1285 -60 l-12 -85 -431 -432 c-480
-481 -431 -443 -593 -459 l-69 -6 555 556 c463 464 556 553 559 534 2 -13 -2
-61 -9 -108z m-1535 -190 l-70 -70 -319 2 -319 3 -23 68 -23 67 412 0 411 0
-69 -70z m1400 -197 c-79 -137 -214 -286 -339 -375 -173 -122 -157 -96 104
166 140 141 256 256 258 256 2 0 -8 -21 -23 -47z m-1715 -119 l-135 -135 -48
53 c-47 53 -131 172 -143 202 -6 14 17 16 227 16 l234 0 -135 -136z"/>
</g>
</svg>
